name ./resultDataOpenSim/trcMotMarkerGrf/sub06/grf-02-02.mot
datacolumns 19
datarows 27
range 0.48000000 0.58400000
endheader

                time	     ground_force_vx	     ground_force_vy	     ground_force_vz	     ground_force_px	     ground_force_py	     ground_force_pz	   l_ground_force_vx	   l_ground_force_vy	   l_ground_force_vz	   l_ground_force_px	   l_ground_force_py	   l_ground_force_pz	     ground_torque_x	     ground_torque_y	     ground_torque_z	   l_ground_torque_x	   l_ground_torque_y	   l_ground_torque_z	
          0.48000000	         63.08666243	        461.92241164	        -26.26443795	         -0.74501680	          0.00000000	          0.08660677	          0.00000000	          0.00000000	          0.00000000	          0.00000000	          0.00000000	          0.00000000	          0.00000000	          2.48952697	          0.00000000	          0.00000000	          0.00000000	          0.00000000	
          0.48400000	         67.21017197	        481.47910604	        -28.79083672	         -0.74431650	          0.00000000	          0.08657462	          0.00000000	          0.00000000	          0.00000000	          0.00000000	          0.00000000	          0.00000000	          0.00000000	          2.27592731	          0.00000000	          0.00000000	          0.00000000	          0.00000000	
          0.48800000	         71.72320539	        501.60566955	        -31.23745012	         -0.74370427	          0.00000000	          0.08649731	          0.00000000	          0.00000000	          0.00000000	          0.00000000	          0.00000000	          0.00000000	          0.00000000	          2.06584623	          0.00000000	          0.00000000	          0.00000000	          0.00000000	
          0.49200000	         76.62031617	        522.16050923	        -33.34616478	         -0.74318038	          0.00000000	          0.08637580	          0.00000000	          0.00000000	          0.00000000	          0.00000000	          0.00000000	          0.00000000	          0.00000000	          1.89279651	          0.00000000	          0.00000000	          0.00000000	          0.00000000	
          0.49600000	         81.86567426	        542.98355659	        -34.90988262	         -0.74273172	          0.00000000	          0.08621057	          0.00000000	          0.00000000	          0.00000000	          0.00000000	          0.00000000	          0.00000000	          0.00000000	          1.78623425	          0.00000000	          0.00000000	          0.00000000	          0.00000000	
          0.50000000	         87.40940499	        563.89404317	        -35.81137811	         -0.74234112	          0.00000000	          0.08600257	          0.00000000	          0.00000000	          0.00000000	          0.00000000	          0.00000000	          0.00000000	          0.00000000	          1.76536254	          0.00000000	          0.00000000	          0.00000000	          0.00000000	
          0.50400000	         93.20519641	        584.69238825	        -36.04725678	         -0.74198470	          0.00000000	          0.08575608	          0.00000000	          0.00000000	          0.00000000	          0.00000000	          0.00000000	          0.00000000	          0.00000000	          1.83501260	          0.00000000	          0.00000000	          0.00000000	          0.00000000	
          0.50800000	         99.22293027	        605.16634081	        -35.73056169	         -0.74164428	          0.00000000	          0.08548069	          0.00000000	          0.00000000	          0.00000000	          0.00000000	          0.00000000	          0.00000000	          0.00000000	          1.98455965	          0.00000000	          0.00000000	          0.00000000	          0.00000000	
          0.51200000	        105.45371474	        625.08973777	        -35.06686031	         -0.74131729	          0.00000000	          0.08518737	          0.00000000	          0.00000000	          0.00000000	          0.00000000	          0.00000000	          0.00000000	          0.00000000	          2.19008559	          0.00000000	          0.00000000	          0.00000000	          0.00000000	
          0.51600000	        111.90766992	        644.21142035	        -34.31169286	         -0.74099159	          0.00000000	          0.08489148	          0.00000000	          0.00000000	          0.00000000	          0.00000000	          0.00000000	          0.00000000	          0.00000000	          2.41920629	          0.00000000	          0.00000000	          0.00000000	          0.00000000	
          0.52000000	        118.60550924	        662.25715166	        -33.72079127	         -0.74065318	          0.00000000	          0.08461055	          0.00000000	          0.00000000	          0.00000000	          0.00000000	          0.00000000	          0.00000000	          0.00000000	          2.63745561	          0.00000000	          0.00000000	          0.00000000	          0.00000000	
          0.52400000	        125.56779941	        678.95732087	        -33.49975992	         -0.74029790	          0.00000000	          0.08436315	          0.00000000	          0.00000000	          0.00000000	          0.00000000	          0.00000000	          0.00000000	          0.00000000	          2.81489210	          0.00000000	          0.00000000	          0.00000000	          0.00000000	
          0.52800000	        132.80524954	        694.08132581	        -33.76257631	         -0.73992678	          0.00000000	          0.08416132	          0.00000000	          0.00000000	          0.00000000	          0.00000000	          0.00000000	          0.00000000	          0.00000000	          2.93157950	          0.00000000	          0.00000000	          0.00000000	          0.00000000	
          0.53200000	        140.30718267	        707.45709446	        -34.51176089	         -0.73954127	          0.00000000	          0.08400853	          0.00000000	          0.00000000	          0.00000000	          0.00000000	          0.00000000	          0.00000000	          0.00000000	          2.98082225	          0.00000000	          0.00000000	          0.00000000	          0.00000000	
          0.53600000	        148.02905660	        718.97162420	        -35.64384241	         -0.73913969	          0.00000000	          0.08389653	          0.00000000	          0.00000000	          0.00000000	          0.00000000	          0.00000000	          0.00000000	          0.00000000	          2.96950971	          0.00000000	          0.00000000	          0.00000000	          0.00000000	
          0.54000000	        155.89073814	        728.56077499	        -36.97371287	         -0.73871901	          0.00000000	          0.08381048	          0.00000000	          0.00000000	          0.00000000	          0.00000000	          0.00000000	          0.00000000	          0.00000000	          2.91554020	          0.00000000	          0.00000000	          0.00000000	          0.00000000	
          0.54400000	        163.79076545	        736.19353801	        -38.27401808	         -0.73827949	          0.00000000	          0.08373852	          0.00000000	          0.00000000	          0.00000000	          0.00000000	          0.00000000	          0.00000000	          0.00000000	          2.84294581	          0.00000000	          0.00000000	          0.00000000	          0.00000000	
          0.54800000	        171.62443196	        741.84700330	        -39.32528259	         -0.73782896	          0.00000000	          0.08367290	          0.00000000	          0.00000000	          0.00000000	          0.00000000	          0.00000000	          0.00000000	          0.00000000	          2.77586056	          0.00000000	          0.00000000	          0.00000000	          0.00000000	
          0.55200000	        179.29688986	        745.47826228	        -39.96334983	         -0.73737707	          0.00000000	          0.08360685	          0.00000000	          0.00000000	          0.00000000	          0.00000000	          0.00000000	          0.00000000	          0.00000000	          2.73269392	          0.00000000	          0.00000000	          0.00000000	          0.00000000	
          0.55600000	        186.73595586	        747.01651290	        -40.11063030	         -0.73692533	          0.00000000	          0.08353753	          0.00000000	          0.00000000	          0.00000000	          0.00000000	          0.00000000	          0.00000000	          0.00000000	          2.72174882	          0.00000000	          0.00000000	          0.00000000	          0.00000000	
          0.56000000	        193.90312656	        746.38697503	        -39.78650855	         -0.73646708	          0.00000000	          0.08346912	          0.00000000	          0.00000000	          0.00000000	          0.00000000	          0.00000000	          0.00000000	          0.00000000	          2.73915243	          0.00000000	          0.00000000	          0.00000000	          0.00000000	
          0.56400000	        200.79309907	        743.54277725	        -39.09718368	         -0.73599471	          0.00000000	          0.08340934	          0.00000000	          0.00000000	          0.00000000	          0.00000000	          0.00000000	          0.00000000	          0.00000000	          2.76944486	          0.00000000	          0.00000000	          0.00000000	          0.00000000	
          0.56800000	        207.42182969	        738.46992556	        -38.20859193	         -0.73550501	          0.00000000	          0.08336616	          0.00000000	          0.00000000	          0.00000000	          0.00000000	          0.00000000	          0.00000000	          0.00000000	          2.78857651	          0.00000000	          0.00000000	          0.00000000	          0.00000000	
          0.57200000	        213.81268995	        731.16348905	        -37.30868316	         -0.73500272	          0.00000000	          0.08334672	          0.00000000	          0.00000000	          0.00000000	          0.00000000	          0.00000000	          0.00000000	          0.00000000	          2.76854808	          0.00000000	          0.00000000	          0.00000000	          0.00000000	
          0.57600000	        219.98506984	        721.60068867	        -36.56281423	         -0.73450511	          0.00000000	          0.08335359	          0.00000000	          0.00000000	          0.00000000	          0.00000000	          0.00000000	          0.00000000	          0.00000000	          2.68265052	          0.00000000	          0.00000000	          0.00000000	          0.00000000	
          0.58000000	        225.94010233	        709.71882644	        -36.06822267	         -0.73404456	          0.00000000	          0.08338260	          0.00000000	          0.00000000	          0.00000000	          0.00000000	          0.00000000	          0.00000000	          0.00000000	          2.51028565	          0.00000000	          0.00000000	          0.00000000	          0.00000000	
          0.58400000	        231.63825205	        695.38641951	        -35.81985092	         -0.73365722	          0.00000000	          0.08342753	          0.00000000	          0.00000000	          0.00000000	          0.00000000	          0.00000000	          0.00000000	          0.00000000	          2.24061243	          0.00000000	          0.00000000	          0.00000000	          0.00000000	
